<svg width="265" height="63" viewBox="0 0 265 63" fill="none" xmlns="http://www.w3.org/2000/svg">
<path d="M118.56 44V34.082C118.56 33.002 118.458 32.012 118.254 31.112C118.05 30.2 117.72 29.408 117.264 28.736C116.82 28.052 116.238 27.524 115.518 27.152C114.81 26.78 113.946 26.594 112.926 26.594C111.99 26.594 111.162 26.756 110.442 27.08C109.734 27.404 109.134 27.872 108.642 28.484C108.162 29.084 107.796 29.816 107.544 30.68C107.292 31.544 107.166 32.528 107.166 33.632L105.294 33.218C105.294 31.226 105.642 29.552 106.338 28.196C107.034 26.84 107.994 25.814 109.218 25.118C110.442 24.422 111.846 24.074 113.43 24.074C114.594 24.074 115.608 24.254 116.472 24.614C117.348 24.974 118.086 25.46 118.686 26.072C119.298 26.684 119.79 27.386 120.162 28.178C120.534 28.958 120.804 29.792 120.972 30.68C121.14 31.556 121.224 32.432 121.224 33.308V44H118.56ZM104.502 44V18.08H106.896V32.714H107.166V44H104.502ZM134.121 44.54C132.225 44.54 130.581 44.12 129.189 43.28C127.809 42.44 126.735 41.258 125.967 39.734C125.199 38.21 124.815 36.422 124.815 34.37C124.815 32.246 125.193 30.41 125.949 28.862C126.705 27.314 127.767 26.12 129.135 25.28C130.515 24.44 132.141 24.02 134.013 24.02C135.933 24.02 137.571 24.464 138.927 25.352C140.283 26.228 141.309 27.488 142.005 29.132C142.701 30.776 143.019 32.738 142.959 35.018H140.259V34.082C140.211 31.562 139.665 29.66 138.621 28.376C137.589 27.092 136.077 26.45 134.085 26.45C131.997 26.45 130.395 27.128 129.279 28.484C128.175 29.84 127.623 31.772 127.623 34.28C127.623 36.728 128.175 38.63 129.279 39.986C130.395 41.33 131.973 42.002 134.013 42.002C135.405 42.002 136.617 41.684 137.649 41.048C138.693 40.4 139.515 39.47 140.115 38.258L142.581 39.212C141.813 40.904 140.679 42.218 139.179 43.154C137.691 44.078 136.005 44.54 134.121 44.54ZM126.687 35.018V32.804H141.537V35.018H126.687ZM152.164 44.54C150.7 44.54 149.47 44.276 148.474 43.748C147.49 43.22 146.752 42.518 146.26 41.642C145.768 40.766 145.522 39.812 145.522 38.78C145.522 37.724 145.732 36.824 146.152 36.08C146.584 35.324 147.166 34.706 147.898 34.226C148.642 33.746 149.5 33.38 150.472 33.128C151.456 32.888 152.542 32.678 153.73 32.498C154.93 32.306 156.1 32.144 157.24 32.012C158.392 31.868 159.4 31.73 160.264 31.598L159.328 32.174C159.364 30.254 158.992 28.832 158.212 27.908C157.432 26.984 156.076 26.522 154.144 26.522C152.812 26.522 151.684 26.822 150.76 27.422C149.848 28.022 149.206 28.97 148.834 30.266L146.26 29.51C146.704 27.77 147.598 26.42 148.942 25.46C150.286 24.5 152.032 24.02 154.18 24.02C155.956 24.02 157.462 24.356 158.698 25.028C159.946 25.688 160.828 26.648 161.344 27.908C161.584 28.472 161.74 29.102 161.812 29.798C161.884 30.494 161.92 31.202 161.92 31.922V44H159.562V39.122L160.246 39.41C159.586 41.078 158.56 42.35 157.168 43.226C155.776 44.102 154.108 44.54 152.164 44.54ZM152.47 42.254C153.706 42.254 154.786 42.032 155.71 41.588C156.634 41.144 157.378 40.538 157.942 39.77C158.506 38.99 158.872 38.114 159.04 37.142C159.184 36.518 159.262 35.834 159.274 35.09C159.286 34.334 159.292 33.77 159.292 33.398L160.3 33.92C159.4 34.04 158.422 34.16 157.366 34.28C156.322 34.4 155.29 34.538 154.27 34.694C153.262 34.85 152.35 35.036 151.534 35.252C150.982 35.408 150.448 35.63 149.932 35.918C149.416 36.194 148.99 36.566 148.654 37.034C148.33 37.502 148.168 38.084 148.168 38.78C148.168 39.344 148.306 39.89 148.582 40.418C148.87 40.946 149.326 41.384 149.95 41.732C150.586 42.08 151.426 42.254 152.47 42.254ZM174.148 44.54C172.336 44.54 170.788 44.09 169.504 43.19C168.22 42.278 167.236 41.048 166.552 39.5C165.868 37.952 165.526 36.206 165.526 34.262C165.526 32.33 165.862 30.59 166.534 29.042C167.218 27.494 168.196 26.27 169.468 25.37C170.74 24.47 172.264 24.02 174.04 24.02C175.864 24.02 177.4 24.464 178.648 25.352C179.896 26.24 180.838 27.458 181.474 29.006C182.122 30.542 182.446 32.294 182.446 34.262C182.446 36.194 182.128 37.94 181.492 39.5C180.856 41.048 179.92 42.278 178.684 43.19C177.448 44.09 175.936 44.54 174.148 44.54ZM174.418 42.074C175.798 42.074 176.938 41.738 177.838 41.066C178.738 40.394 179.41 39.47 179.854 38.294C180.298 37.106 180.52 35.762 180.52 34.262C180.52 32.738 180.298 31.394 179.854 30.23C179.41 29.054 178.738 28.136 177.838 27.476C176.95 26.816 175.828 26.486 174.472 26.486C173.08 26.486 171.928 26.828 171.016 27.512C170.104 28.196 169.426 29.126 168.982 30.302C168.55 31.478 168.334 32.798 168.334 34.262C168.334 35.738 168.556 37.07 169 38.258C169.456 39.434 170.134 40.364 171.034 41.048C171.934 41.732 173.062 42.074 174.418 42.074ZM180.52 44V29.366H180.232V18.08H182.896V44H180.52ZM188.306 44V17.54H190.952V44H188.306ZM196.708 20.87V17.9H199.354V20.87H196.708ZM196.708 44V24.56H199.354V44H196.708ZM218.79 44V34.082C218.79 33.002 218.688 32.012 218.484 31.112C218.28 30.2 217.95 29.408 217.494 28.736C217.05 28.052 216.468 27.524 215.748 27.152C215.04 26.78 214.176 26.594 213.156 26.594C212.22 26.594 211.392 26.756 210.672 27.08C209.964 27.404 209.364 27.872 208.872 28.484C208.392 29.084 208.026 29.816 207.774 30.68C207.522 31.544 207.396 32.528 207.396 33.632L205.524 33.218C205.524 31.226 205.872 29.552 206.568 28.196C207.264 26.84 208.224 25.814 209.448 25.118C210.672 24.422 212.076 24.074 213.66 24.074C214.824 24.074 215.838 24.254 216.702 24.614C217.578 24.974 218.316 25.46 218.916 26.072C219.528 26.684 220.02 27.386 220.392 28.178C220.764 28.958 221.034 29.792 221.202 30.68C221.37 31.556 221.454 32.432 221.454 33.308V44H218.79ZM204.732 44V24.56H207.126V29.348H207.396V44H204.732ZM234.246 44.54C232.35 44.54 230.706 44.12 229.314 43.28C227.934 42.44 226.86 41.258 226.092 39.734C225.324 38.21 224.94 36.422 224.94 34.37C224.94 32.246 225.318 30.41 226.074 28.862C226.83 27.314 227.892 26.12 229.26 25.28C230.64 24.44 232.266 24.02 234.138 24.02C236.058 24.02 237.696 24.464 239.052 25.352C240.408 26.228 241.434 27.488 242.13 29.132C242.826 30.776 243.144 32.738 243.084 35.018H240.384V34.082C240.336 31.562 239.79 29.66 238.746 28.376C237.714 27.092 236.202 26.45 234.21 26.45C232.122 26.45 230.52 27.128 229.404 28.484C228.3 29.84 227.748 31.772 227.748 34.28C227.748 36.728 228.3 38.63 229.404 39.986C230.52 41.33 232.098 42.002 234.138 42.002C235.53 42.002 236.742 41.684 237.774 41.048C238.818 40.4 239.64 39.47 240.24 38.258L242.706 39.212C241.938 40.904 240.804 42.218 239.304 43.154C237.816 44.078 236.13 44.54 234.246 44.54ZM226.812 35.018V32.804H241.662V35.018H226.812Z" fill="url(#paint0_linear_22_88)"/>
<path d="M38.5 3C38.5 16.1429 52.2841 24.7296 64.0808 18.9353L67.5118 17.25C55.676 23.0635 55.676 39.9365 67.5118 45.75L64.0808 44.0647C52.2841 38.2704 38.5 46.8571 38.5 60C38.5 46.8571 24.7159 38.2704 12.9192 44.0647L9.48815 45.75C21.324 39.9365 21.324 23.0635 9.48815 17.25L12.9192 18.9353C24.7159 24.7296 38.5 16.1429 38.5 3Z" fill="url(#paint1_linear_22_88)" fill-opacity="0.97"/>
<path d="M77 30C77 46.5685 59.763 60 38.5 60C17.237 60 0 46.5685 0 30C0 13.4315 17.237 0 38.5 0C59.763 0 77 13.4315 77 30ZM6.37438 30C6.37438 43.8253 20.7575 55.033 38.5 55.033C56.2425 55.033 70.6256 43.8253 70.6256 30C70.6256 16.1747 56.2425 4.96705 38.5 4.96705C20.7575 4.96705 6.37438 16.1747 6.37438 30Z" fill="url(#paint2_linear_22_88)"/>
<path d="M46.6317 25.4896C45.0234 24.3008 42.9743 23.4913 40.7435 23.1633C38.5128 22.8354 36.2005 23.0037 34.0991 23.647C31.9978 24.2904 30.2017 25.3798 28.9381 26.7777C27.6745 28.1755 27 29.8189 27 31.5C27 33.1811 27.6745 34.8245 28.9381 36.2223C30.2017 37.6202 31.9978 38.7096 34.0991 39.353C36.2005 39.9963 38.5128 40.1646 40.7435 39.8367C42.9743 39.5087 45.0234 38.6992 46.6317 37.5104L38.5 31.5L46.6317 25.4896Z" fill="url(#paint3_linear_22_88)"/>
<defs>
<linearGradient id="paint0_linear_22_88" x1="183.5" y1="3" x2="183.5" y2="53" gradientUnits="userSpaceOnUse">
<stop stop-color="#F0E2E2"/>
<stop offset="1" stop-color="#171616"/>
</linearGradient>
<linearGradient id="paint1_linear_22_88" x1="38.5" y1="3" x2="38.5" y2="60" gradientUnits="userSpaceOnUse">
<stop stop-color="#005C69"/>
<stop offset="1" stop-color="#005C69" stop-opacity="0"/>
</linearGradient>
<linearGradient id="paint2_linear_22_88" x1="38.5" y1="0" x2="38.5" y2="60" gradientUnits="userSpaceOnUse">
<stop stop-color="#01002C"/>
<stop offset="1" stop-color="#A9C4D8"/>
</linearGradient>
<linearGradient id="paint3_linear_22_88" x1="38.5" y1="23" x2="38.5" y2="40" gradientUnits="userSpaceOnUse">
<stop stop-color="#171616"/>
<stop offset="1" stop-color="#171616"/>
</linearGradient>
</defs>
</svg>
